<svg width="48" height="48" viewBox="0 0 48 48" fill="none" xmlns="http://www.w3.org/2000/svg">
<path fill-rule="evenodd" clip-rule="evenodd" d="M17.3392 12H30.6608C33.6096 12 36 14.3904 36 17.3392V30.6608C36 33.6096 33.6096 36 30.6608 36H17.3392C14.3904 36 12 33.6096 12 30.6608V17.3392C12 14.3904 14.3904 12 17.3392 12ZM22.104 30.368C22.314 31.8264 22.4523 32.4197 22.776 32.7331C22.8274 32.8012 22.8852 32.8611 22.9512 32.9128C23.1272 33.0568 23.3672 33.1288 23.5512 33.1688C23.7352 33.2088 23.8712 33.2088 24.0152 33.2088C24.1592 33.2088 24.3112 33.2088 24.4792 33.1688C24.6472 33.1288 24.8232 33.0568 24.9752 32.9368C25.1272 32.8168 25.2632 32.6488 25.3672 32.3928C25.4712 32.1448 25.5512 31.8088 25.6632 31.0408C25.7752 30.2768 25.9192 29.084 25.9912 28.2704C26.0632 27.4544 26.0632 27.0176 26.0472 26.7024C26.0232 26.388 25.9832 26.196 25.9032 26.0344C25.8232 25.8728 25.6952 25.74 25.5192 25.612C25.4985 25.5973 25.4771 25.5826 25.4551 25.568C25.0908 25.2603 24.5376 25.0932 23.856 25.096C22.86 25.1 22.148 25.4496 21.8856 26.0656C21.688 26.5304 21.7624 27.9976 22.104 30.368ZM15.5768 24.568C16.1528 27.3056 17.7368 29.3632 20.2088 30.5792L20.2488 30.6088C20.6808 30.8168 21.0888 30.9928 21.1448 30.9928C21.2328 30.9928 21.2408 30.8888 21.2008 30.5288C21.1368 29.9368 21.0648 29.8168 20.7288 29.6728C20.5768 29.6088 20.2088 29.4008 19.9048 29.2008C18.3528 28.2008 17.1688 26.5208 16.7128 24.6888C16.5288 23.9368 16.5288 22.1048 16.7128 21.3528C17.4008 18.5848 19.6568 16.3848 22.3848 15.8248C23.1768 15.6648 24.6008 15.6648 25.3848 15.8248C28.0808 16.3848 30.2808 18.4808 31.0088 21.1768C31.2408 22.0248 31.2648 23.8568 31.0568 24.6808C30.7288 26.0008 30.0168 27.2568 29.0488 28.2168C28.4888 28.7784 27.5768 29.428 27.0408 29.652C26.7048 29.7928 26.6328 29.916 26.5608 30.508C26.5208 30.8768 26.5288 30.968 26.6168 30.968C26.8568 30.968 28.3448 30.1664 28.9528 29.7072C30.6568 28.4224 31.8248 26.5104 32.1928 24.4112C32.3048 23.7472 32.3048 22.1376 32.1848 21.5472C31.8328 19.7736 31.1448 18.4272 29.9208 17.1552C28.3128 15.4696 26.2008 14.568 23.8648 14.568C21.5048 14.568 19.3848 15.4864 17.7368 17.224C16.5928 18.4272 15.9048 19.788 15.5448 21.528C15.4088 22.176 15.4328 23.8616 15.5768 24.568ZM18.3688 24.328C18.6728 25.4832 19.4088 26.6608 20.2408 27.3248L20.2744 27.336C20.5224 27.536 20.7544 27.696 20.7864 27.696C20.8192 27.696 20.8456 27.424 20.8456 27.088V26.48L20.4328 25.984C18.8648 24.104 18.9768 21.4664 20.6968 19.7624C21.3984 19.068 22.1888 18.6728 23.2088 18.5064C23.8808 18.396 24.0168 18.396 24.6568 18.5144C25.6488 18.696 26.4168 19.0896 27.0808 19.76C28.7928 21.4816 28.9048 24.1056 27.3368 25.984L26.9208 26.48V27.0848C26.9208 27.416 26.9448 27.688 26.9688 27.688C27.1128 27.688 27.9288 26.9672 28.2648 26.5376C28.9448 25.6872 29.3288 24.772 29.4808 23.6576C29.8648 20.892 27.8888 18.104 25.1048 17.484C24.2968 17.3056 22.8408 17.3576 22.1848 17.5896C20.2648 18.2736 18.8808 19.7296 18.3768 21.608C18.1848 22.304 18.1848 23.6304 18.3688 24.328ZM22.5915 23.7954C22.1528 23.4403 21.919 22.9215 21.9128 22.288C21.9128 21.556 22.3208 20.9176 23.0248 20.544C23.3182 20.39 23.7591 20.3368 24.1543 20.385C25.1799 20.4679 25.9864 21.3266 25.9864 22.3736C25.9864 23.4755 25.0931 24.3688 23.9912 24.3688C23.4459 24.3688 22.9516 24.15 22.5915 23.7954Z" fill="white"/>
</svg>
