<svg width="48" height="48" viewBox="0 0 48 48" fill="none" xmlns="http://www.w3.org/2000/svg">
<path fill-rule="evenodd" clip-rule="evenodd" d="M18 12C14.6863 12 12 14.6863 12 18V30C12 33.3137 14.6863 36 18 36H30C33.3137 36 36 33.3137 36 30V18C36 14.6863 33.3137 12 30 12H18ZM25.6058 24.7348C25.4567 24.7053 25.3245 24.6926 25.167 24.6926C24.492 24.6926 23.8858 24.9908 23.4724 25.4633C23.1095 25.8754 22.9084 26.3578 22.9169 26.9442C22.9154 27.2072 22.952 27.4266 23.0336 27.6629C23.2867 28.4139 23.9294 28.9891 24.7198 29.148C25.5974 29.3336 26.4862 29.4293 27.4186 29.4293C28.5845 29.4307 29.6885 29.283 30.7657 28.9975L31.1131 28.9061L31.2931 29.5572L31.2003 29.6711C29.7813 31.4164 27.721 32.6217 25.3766 32.9255C24.9997 32.9733 24.6017 33 24.2107 33C22.6173 32.9958 21.0717 32.564 19.7793 31.8355C17.643 30.6261 16.051 28.5657 15.4603 26.1145C15.2986 25.445 15.2114 24.7208 15.21 24.0007C15.21 21.1936 16.4954 18.6861 18.5079 17.0364C20.0437 15.7847 22.0716 15.007 24.2107 15C29.396 15 32.7895 18.3851 32.7895 22.4537C32.7895 25.1399 30.611 27.3071 27.9474 27.3633L27.6127 27.3703L27.5297 27.0455C27.4664 26.7994 27.3666 26.4407 27.2906 26.2017C27.029 25.4577 26.3877 24.8895 25.6058 24.7348ZM31.9457 22.4537C31.9457 18.9266 29.0092 15.8438 24.2107 15.8438C22.5076 15.8382 20.9733 16.3346 19.6724 17.2178C23.6749 18.6804 26.7857 21.849 28.0923 25.9415C28.1429 26.099 28.202 26.3057 28.2568 26.5012C30.3199 26.2931 31.9457 24.5618 31.9457 22.4537ZM18.8708 17.8338C17.1452 19.3302 16.0538 21.5382 16.0538 24.0007C16.0538 24.469 16.0904 24.9162 16.1649 25.3564C18.1563 24.2567 20.4853 23.6168 22.9154 23.6125C23.8872 23.6125 24.8562 23.718 25.7704 23.9079C25.9954 23.9529 26.2105 24.0218 26.4145 24.1118C24.8436 21.1317 22.1532 18.8858 18.8708 17.8338ZM27.4186 30.2731C26.4412 30.2731 25.4652 30.1676 24.5468 29.9749C24.3345 29.9313 24.1305 29.8666 23.9365 29.7837C24.371 30.5951 24.8914 31.3546 25.4905 32.0577C27.0656 31.8088 28.4903 31.1113 29.6294 30.0973C28.9079 30.2112 28.1654 30.2731 27.4186 30.2731ZM24.2107 32.1576C24.3021 32.1576 24.3935 32.1562 24.4835 32.1534C23.5103 30.9017 22.7354 29.4602 22.2334 27.9287C22.1687 27.7332 22.1194 27.5138 22.0941 27.293C21.3445 28.494 20.7904 29.8202 20.4656 31.2505C21.5963 31.8398 22.8423 32.1618 24.2107 32.1576ZM19.7075 30.8033C20.2673 28.5897 21.3741 26.5476 22.8395 24.905C22.983 24.7404 23.1433 24.5928 23.3177 24.462C23.1841 24.4578 23.0505 24.4564 22.9154 24.4564C20.5064 24.4521 18.297 25.085 16.3576 26.2157C16.8934 28.1171 18.1001 29.7372 19.7075 30.8033Z" fill="white"/>
</svg>
