<svg width="48" height="48" viewBox="0 0 48 48" fill="none" xmlns="http://www.w3.org/2000/svg">
<path fill-rule="evenodd" clip-rule="evenodd" d="M24 12C22.3513 12 20.7963 12.3204 19.3349 12.9611C17.8735 13.583 16.5995 14.4405 15.5129 15.5336C14.4262 16.6266 13.5738 17.9081 12.9555 19.3781C12.3185 20.8481 12 22.4122 12 24.0707C12 25.5783 12.2623 27.0012 12.7869 28.3392C13.3115 29.6961 14.0234 30.9022 14.9227 31.9576C15.822 33.013 16.8899 33.8893 18.1265 34.5866C19.363 35.2839 20.6932 35.755 22.1171 36V27.5477H19.082V24.0707H22.1171V21.4134C22.1171 19.9058 22.5293 18.7468 23.3536 17.9364C24.178 17.126 25.2834 16.7208 26.6698 16.7208C27.3255 16.7208 27.9344 16.7585 28.4965 16.8339C29.0585 16.9093 29.3396 16.947 29.3396 16.947V19.9152H27.822C27.0726 19.9152 26.5621 20.1131 26.2904 20.5088C26.0187 20.9046 25.8829 21.338 25.8829 21.8092V24.0707H29.1991L28.6651 27.5477H25.8829V35.9717C27.3068 35.7456 28.637 35.2839 29.8735 34.5866C31.1101 33.8893 32.1827 33.013 33.0913 31.9576C34 30.9022 34.7073 29.6961 35.2131 28.3392C35.7377 27.0012 36 25.5783 36 24.0707C36 22.4122 35.6815 20.8481 35.0445 19.3781C34.4262 17.9081 33.5738 16.6266 32.4871 15.5336C31.4005 14.4405 30.1265 13.583 28.6651 12.9611C27.2037 12.3204 25.6487 12 24 12Z" fill="white"/>
</svg>
