<svg width="48" height="48" viewBox="0 0 48 48" fill="none" xmlns="http://www.w3.org/2000/svg">
<path fill-rule="evenodd" clip-rule="evenodd" d="M18 12C14.6863 12 12 14.6863 12 18V30C12 33.3137 14.6863 36 18 36H30C33.3137 36 36 33.3137 36 30V18C36 14.6863 33.3137 12 30 12H18ZM22.9163 17.3023C22.9163 17.8804 23.3847 18.3488 23.9628 18.3488C24.5409 18.3488 25.0093 17.8804 25.0093 17.3023V16.0465C25.0093 15.4684 24.5409 15 23.9628 15C23.3847 15 22.9163 15.4684 22.9163 16.0465V17.3023ZM22.9163 31.9535C22.9163 32.5316 23.3847 33 23.9628 33C24.5409 33 25.0093 32.5316 25.0093 31.9535V30.6977C25.0093 30.1196 24.5409 29.6512 23.9628 29.6512C23.3847 29.6512 22.9163 30.1196 22.9163 30.6977V31.9535ZM23.9628 28.3953C23.3847 28.3953 22.9163 27.9269 22.9163 27.3488V20.6512C22.9163 20.0731 23.3847 19.6046 23.9628 19.6046C24.5409 19.6046 25.0093 20.0731 25.0093 20.6512V27.3488C25.0093 27.9269 24.5409 28.3953 23.9628 28.3953ZM26.6837 19.3954C26.6837 18.8173 27.1521 18.3488 27.7302 18.3488C28.3083 18.3488 28.7767 18.8173 28.7767 19.3954V20.6512C28.7767 21.2293 28.3083 21.6977 27.7302 21.6977C27.1521 21.6977 26.6837 21.2293 26.6837 20.6512V19.3954ZM27.7302 22.9535C27.1521 22.9535 26.6837 23.4219 26.6837 24V28.186C26.6837 28.7641 27.1521 29.2326 27.7302 29.2326C28.3083 29.2326 28.7767 28.7641 28.7767 28.186V24C28.7767 23.4219 28.3083 22.9535 27.7302 22.9535ZM30.0326 23.1628C30.0326 22.5847 30.501 22.1163 31.0791 22.1163C31.6572 22.1163 32.1256 22.5847 32.1256 23.1628V24.4186C32.1256 24.9967 31.6572 25.4651 31.0791 25.4651C30.501 25.4651 30.0326 24.9967 30.0326 24.4186V23.1628ZM20.1953 29.2326C19.6173 29.2326 19.1488 28.7641 19.1488 28.186V26.9302C19.1488 26.3521 19.6173 25.8837 20.1953 25.8837C20.7734 25.8837 21.2419 26.3521 21.2419 26.9302V28.186C21.2419 28.7641 20.7734 29.2326 20.1953 29.2326ZM19.1488 23.5814C19.1488 24.1595 19.6173 24.6279 20.1953 24.6279C20.7734 24.6279 21.2419 24.1595 21.2419 23.5814V19.3954C21.2419 18.8173 20.7734 18.3488 20.1953 18.3488C19.6173 18.3488 19.1488 18.8173 19.1488 19.3954V23.5814ZM16.8465 22.1163C17.4246 22.1163 17.893 22.5847 17.893 23.1628V24.4186C17.893 24.9967 17.4246 25.4651 16.8465 25.4651C16.2684 25.4651 15.8 24.9967 15.8 24.4186V23.1628C15.8 22.5847 16.2684 22.1163 16.8465 22.1163Z" fill="white"/>
</svg>
