<svg width="48" height="48" viewBox="0 0 48 48" fill="none" xmlns="http://www.w3.org/2000/svg">
<g clip-path="url(#clip0)">
<path fill-rule="evenodd" clip-rule="evenodd" d="M27.2031 12.0146C27.7135 12.025 28.2917 12.0509 28.9375 12.0925C29.4375 12.0925 29.9323 12.1393 30.4219 12.2328C30.9115 12.3263 31.3958 12.4562 31.875 12.6224C32.6667 12.9341 33.3698 13.3965 33.9844 14.0095C34.599 14.6225 35.0625 15.3342 35.375 16.1447C35.5417 16.6018 35.6719 17.0798 35.7656 17.5785C35.8594 18.0772 35.9167 18.576 35.9375 19.0747C35.9708 19.59 35.9908 20.0622 35.9975 20.4911L36 20.8046V24.0308L36 24.191L35.9994 24.9366C35.9977 26.0554 35.9927 26.8185 35.9844 27.2257C35.974 27.7349 35.9583 28.3115 35.9375 28.9557C35.9167 29.4544 35.8594 29.948 35.7656 30.4363C35.6719 30.9246 35.5417 31.3974 35.375 31.8546C35.0625 32.665 34.599 33.3767 33.9844 33.9897C33.3698 34.6027 32.6667 35.0651 31.875 35.3768C31.3958 35.5431 30.9115 35.6729 30.4219 35.7664C29.9323 35.86 29.4375 35.9067 28.9375 35.9067C28.3125 35.9483 27.7396 35.9742 27.2188 35.9846C26.8368 35.9923 26.158 35.9971 25.1822 35.9991L24.6206 35.9999L24.3176 36.0002H23.6824C23.579 36.0001 23.4781 36 23.3797 35.9999L22.8189 35.9991C21.8452 35.9971 21.1712 35.9923 20.7969 35.9846C20.2865 35.9742 19.7083 35.9483 19.0625 35.9067C18.5625 35.9067 18.0677 35.8548 17.5781 35.7509C17.0885 35.647 16.6146 35.5015 16.1563 35.3145C15.3437 35.0028 14.6302 34.5456 14.0156 33.943C13.401 33.3403 12.9375 32.6338 12.625 31.8234C12.4583 31.3454 12.3281 30.8675 12.2344 30.3895C12.1406 29.9116 12.0833 29.4233 12.0625 28.9245C12.0292 28.4092 12.0092 27.9337 12.0025 27.4982L12 27.179L12.0006 23.0626C12.0023 21.9438 12.0073 21.1808 12.0156 20.7735C12.026 20.2644 12.0417 19.6877 12.0625 19.0435C12.0833 18.5448 12.1406 18.0513 12.2344 17.5629C12.3281 17.0746 12.4583 16.6018 12.625 16.1447C12.9375 15.3342 13.401 14.6225 14.0156 14.0095C14.6302 13.3965 15.3333 12.9341 16.125 12.6224C16.6042 12.4562 17.0885 12.3263 17.5781 12.2328C18.0677 12.1393 18.5625 12.0925 19.0625 12.0925C19.6875 12.0509 20.2604 12.025 20.7812 12.0146C21.1222 12.0078 21.6996 12.0032 22.5136 12.0009L25.4392 12.0007C26.2749 12.003 26.8628 12.0077 27.2031 12.0146ZM24 17.8279C23.1458 17.8279 22.3438 17.9837 21.5938 18.2954C20.8437 18.6279 20.1875 19.0695 19.625 19.6202C19.0625 20.1708 18.625 20.8202 18.3125 21.5683C17.9792 22.3164 17.8125 23.1164 17.8125 23.9684C17.8125 24.8204 17.9792 25.6205 18.3125 26.3686C18.625 27.1167 19.0625 27.766 19.625 28.3167C20.1875 28.8674 20.8437 29.309 21.5938 29.6415C22.3438 29.9532 23.1458 30.109 24 30.109C24.8542 30.109 25.6458 29.9532 26.375 29.6415C27.125 29.309 27.7813 28.8674 28.3438 28.3167C28.9063 27.766 29.3438 27.1167 29.6563 26.3686C29.9896 25.6205 30.1562 24.8204 30.1562 23.9684C30.1562 23.1164 29.9896 22.3164 29.6563 21.5683C29.3438 20.8202 28.9063 20.1708 28.3438 19.6202C27.7813 19.0695 27.125 18.6279 26.375 18.2954C25.6458 17.9837 24.8542 17.8279 24 17.8279ZM24 19.9786C25.1042 19.9786 26.0469 20.3683 26.8281 21.1475C27.6094 21.9268 28 22.8671 28 23.9684C28 25.0698 27.6094 26.0101 26.8281 26.7894C26.0469 27.5686 25.1042 27.9583 24 27.9583C22.8958 27.9583 21.9531 27.5686 21.1719 26.7894C20.3906 26.0101 20 25.0698 20 23.9684C20 22.8671 20.3906 21.9268 21.1719 21.1475C21.9531 20.3683 22.8958 19.9786 24 19.9786ZM30.4063 16.1758C30.0104 16.1758 29.6719 16.3109 29.3906 16.5811C29.1094 16.8512 28.9688 17.1941 28.9688 17.6097C28.9688 18.0045 29.1094 18.3422 29.3906 18.6227C29.6719 18.9033 30.0104 19.0435 30.4063 19.0435C30.8021 19.0435 31.1406 18.9033 31.4219 18.6227C31.7031 18.3422 31.8438 18.0045 31.8438 17.6097C31.8438 17.1941 31.7031 16.8512 31.4219 16.5811C31.1406 16.3109 30.8021 16.1758 30.4063 16.1758Z" fill="white"/>
</g>
<defs>
<clipPath id="clip0">
<rect width="24" height="24" fill="white" transform="translate(12 12)"/>
</clipPath>
</defs>
</svg>
