<svg width="88" height="88" viewBox="0 0 88 88" fill="none" xmlns="http://www.w3.org/2000/svg">
<rect x="19.25" y="24.75" width="49.5" height="22" fill="white"/>
<path fill-rule="evenodd" clip-rule="evenodd" d="M44.0188 8.25C48.0865 8.25 51.8964 9.02344 55.4485 10.5703C59.0006 12.1172 62.1087 14.2226 64.7727 16.8867C67.4368 19.5508 69.5136 22.6588 71.0032 26.2109C72.5501 29.763 73.3235 33.5729 73.3235 37.6406C73.3808 43.5417 71.8912 49.1562 68.8548 54.4844C65.761 59.7552 62.3808 64.4101 58.7141 68.4492C55.0475 72.4883 51.6959 75.6823 48.6595 78.0312C45.5657 80.4375 44.0188 81.6406 44.0188 81.6406C43.7324 81.4115 42.0423 80.0938 38.9485 77.6875C35.8548 75.3385 32.5032 72.1732 28.8938 68.1914C25.2844 64.2096 22.0188 59.5834 19.097 54.3125C16.1178 49.0989 14.6569 43.5131 14.7141 37.5547C14.7141 33.5443 15.4876 29.763 17.0345 26.2109C18.524 22.6588 20.6009 19.5508 23.2649 16.8867C25.929 14.2226 29.037 12.1172 32.5891 10.5703C36.1412 9.02344 39.9511 8.25 44.0188 8.25ZM25.7219 27.5L23.1554 33.6918C25.1449 34.6177 25.7818 35.7749 26.4183 36.9518C26.6172 37.3184 26.8364 37.6847 27.0752 38.09C25.9214 39.3478 24.382 41.2065 22.9625 43.3207C23.657 44.2462 24.4079 45.1257 25.2123 45.9516C26.4047 44.7138 28.9351 42.7415 31.3933 41.3693C32.408 42.0057 34.0992 42.4688 35.9699 42.4688C38.2979 42.4688 40.1883 41.8318 41.9992 41.2144C43.5117 40.6939 44.9641 40.2118 46.5362 40.2118C48.387 40.2118 49.7795 40.6939 51.0333 41.1373C52.1873 41.5426 53.2622 41.9089 54.4159 41.9089C56.7842 41.9089 57.4404 41.2341 59.4305 41.2341C61.3408 41.2341 62.9927 42.3336 64.5046 43.2982C64.6709 43.401 64.8289 43.5007 64.9857 43.5984C65.7055 42.6653 66.3668 41.6842 66.9625 40.6581C65.8341 39.8592 65.2555 39.0114 65.0022 38.5334C62.0173 37.3374 61.0621 35.9679 60.4851 34.5983C59.4901 32.1486 57.6994 29.8916 53.4012 29.8916C50.8743 29.8916 49.3817 30.3547 48.0684 30.7406C47.0537 31.0491 46.0982 31.3383 44.8647 31.3383C43.3524 31.3383 42.4169 30.8178 41.3427 30.1811C40.2279 29.5253 38.9548 28.8308 36.7059 28.3487C34.6765 27.9047 32.249 28.2906 29.9805 28.2906C28.7068 28.2906 27.5131 28.1748 25.7219 27.5Z" fill="#1A1A1A"/>
</svg>
