<svg width="48" height="48" viewBox="0 0 48 48" fill="none" xmlns="http://www.w3.org/2000/svg">
<path fill-rule="evenodd" clip-rule="evenodd" d="M24 36C30.6276 36 36 30.6276 36 24C36 17.3724 30.6276 12 24 12C17.3724 12 12 17.3724 12 24C12 30.6276 17.3724 36 24 36ZM23.9167 14.6667C18.8081 14.6667 14.6667 18.808 14.6667 23.9167C14.6667 29.0253 18.8081 33.1667 23.9167 33.1667V30.8542C20.0852 30.8542 16.9792 27.7481 16.9792 23.9167C16.9792 20.0852 20.0852 16.9792 23.9167 16.9792C27.7482 16.9792 30.8542 20.0852 30.8542 23.9167H33.1667C33.1667 18.808 29.0253 14.6667 23.9167 14.6667ZM18.3667 23.9167C18.3667 26.9819 20.8515 29.4667 23.9167 29.4667V27.4485C21.9661 27.4485 20.3849 25.8672 20.3849 23.9167C20.3849 21.9661 21.9661 20.3849 23.9167 20.3849C25.8673 20.3849 27.4485 21.9661 27.4485 23.9167H29.4667C29.4667 20.8515 26.9819 18.3667 23.9167 18.3667C20.8515 18.3667 18.3667 20.8515 18.3667 23.9167Z" fill="white"/>
</svg>
