<svg width="48" height="48" viewBox="0 0 48 48" fill="none" xmlns="http://www.w3.org/2000/svg">
<path fill-rule="evenodd" clip-rule="evenodd" d="M25.9867 16.0692C29.3243 15.786 32.662 14.0919 36 15.5339V35.4258C31.3956 33.4367 26.7916 37.4149 22.1877 35.4258L22.1875 32.2742C22.1875 32.1585 22.1875 32.0427 22.1875 31.9269C18.7918 32.198 15.3959 33.9149 12 32.4661V12.5742C16.6624 14.5633 21.3247 10.5851 25.9867 12.5742V16.0692ZM28.5296 26.868C28.9312 26.7828 29.3329 26.6943 29.7346 26.6096C31.5133 26.2303 32.2219 25.2065 32.221 23.5946V20.9974C32.2214 19.4125 31.7627 18.4063 29.6007 18.8626C28.3957 19.1189 27.1911 19.4048 25.9856 19.5067V32.4773C26.8335 32.4056 27.6813 32.2426 28.5296 32.0632V26.868ZM28.5296 24.7585V21.0973C28.6886 21.0638 28.8481 21.0294 29.0072 20.995C29.6025 20.8668 29.6568 21.1518 29.6582 21.6224C29.6577 22.3431 29.6577 23.0635 29.6582 23.7842C29.6577 24.1852 29.602 24.5279 29.0072 24.6561C28.8481 24.6905 28.6886 24.7249 28.5296 24.7585ZM18.3931 29.1091V23.5654C18.5715 23.5281 18.7503 23.49 18.9287 23.452C19.4458 23.3418 19.5972 23.4671 19.5981 24.0773V27.8605C19.599 28.4359 19.6947 28.6943 19.8277 28.8069C20.676 28.6337 21.5234 28.4842 22.3712 28.4297V28.3425C22.2764 28.1918 22.1605 27.9572 22.1614 27.399V22.9884C22.1623 22.0252 21.4722 21.6578 21.0709 21.5874C21.5476 21.315 22.2 20.7855 22.1991 19.7081V17.6334C22.1991 16.2427 21.4155 15.508 19.8659 15.8286C18.5275 16.101 17.1881 16.4343 15.8492 16.5469V29.5174C16.6975 29.4462 17.5453 29.2861 18.3931 29.1091ZM18.3931 21.4211V18.1437C18.5845 18.1039 18.7759 18.063 18.9669 18.022C19.4831 17.9119 19.5977 18.063 19.5981 18.6208V20.3817C19.5981 20.9919 19.4081 21.2057 18.8905 21.3159C18.7247 21.3511 18.5589 21.3867 18.3931 21.4211Z" fill="white"/>
</svg>
