<svg width="48" height="48" viewBox="0 0 48 48" fill="none" xmlns="http://www.w3.org/2000/svg">
<path fill-rule="evenodd" clip-rule="evenodd" d="M23.9859 12C25.6553 12 27.2216 12.3189 28.6846 12.9566C30.1477 13.5756 31.4185 14.4291 32.4971 15.517C33.5756 16.6049 34.4244 17.8804 35.0434 19.3435C35.6811 20.8066 36 22.354 36 23.9859C36 25.6366 35.6811 27.1934 35.0434 28.6565C34.4056 30.1196 33.5475 31.3904 32.4689 32.4689C31.3904 33.5475 30.1196 34.4056 28.6565 35.0434C27.1934 35.6811 25.6366 36 23.9859 36C22.354 36 20.8066 35.6811 19.3435 35.0434C17.8804 34.4056 16.6049 33.5475 15.517 32.4689C14.4291 31.3904 13.5756 30.1196 12.9566 28.6565C12.3189 27.1934 12 25.6366 12 23.9859C12 22.354 12.3189 20.8066 12.9566 19.3435C13.5756 17.8804 14.4291 16.6049 15.517 15.517C16.6049 14.4291 17.8804 13.5756 19.3435 12.9566C20.8066 12.3189 22.354 12 23.9859 12ZM23.9297 26.5463C22.9543 26.4338 21.9414 26.415 20.891 26.49C19.8218 26.5651 18.7151 26.7339 17.5709 26.9965C17.4021 27.0528 17.2567 27.1653 17.1348 27.3341C17.0129 27.5029 16.9801 27.6905 17.0363 27.8968C17.0926 28.0844 17.2052 28.2345 17.374 28.347C17.5428 28.4596 17.7304 28.4877 17.9367 28.4314C18.9871 28.1876 20 28.0281 20.9754 27.9531C21.932 27.8781 22.8511 27.8875 23.7327 27.9812C24.6143 28.075 25.449 28.2532 26.2368 28.5158C27.0434 28.7784 27.7937 29.1348 28.4877 29.585C28.6753 29.6975 28.8628 29.7304 29.0504 29.6835C29.238 29.6366 29.388 29.5193 29.5006 29.3318C29.5944 29.1442 29.6225 28.9519 29.585 28.755C29.5475 28.558 29.4256 28.4127 29.2192 28.3189C28.4314 27.8312 27.5967 27.4467 26.7151 27.1653C25.8335 26.8652 24.905 26.6589 23.9297 26.5463ZM20.6659 22.5791C19.4654 22.6729 18.3212 22.8886 17.2333 23.2263C16.9894 23.2825 16.8113 23.4232 16.6987 23.6483C16.5862 23.8734 16.558 24.1079 16.6143 24.3517C16.6706 24.5955 16.8159 24.7737 17.0504 24.8863C17.2849 24.9988 17.524 25.027 17.7679 24.9707C18.7057 24.6706 19.6999 24.4736 20.7503 24.3798C21.8195 24.3048 22.8792 24.3283 23.9297 24.4502C24.9801 24.5721 26.0023 24.7925 26.9965 25.1114C27.9906 25.4302 28.891 25.8335 29.6975 26.3212C29.9039 26.4713 30.129 26.5135 30.3728 26.4478C30.6166 26.3822 30.8136 26.2462 30.9637 26.0399C31.1137 25.8335 31.1559 25.6038 31.0903 25.3505C31.0246 25.0973 30.898 24.9238 30.7104 24.83C29.7913 24.2673 28.7691 23.8077 27.6436 23.4513C26.5369 23.0762 25.3927 22.8183 24.211 22.6776C23.0293 22.5369 21.8476 22.5041 20.6659 22.5791ZM20.1313 18.5557C18.7808 18.6682 17.5709 18.8839 16.5018 19.2028C16.2392 19.2966 16.0328 19.4748 15.8828 19.7374C15.7327 20 15.6952 20.2814 15.7702 20.5815C15.864 20.8441 16.0422 21.0504 16.3048 21.2005C16.5674 21.3505 16.8488 21.388 17.1489 21.313C18.068 21.0129 19.1278 20.8159 20.3283 20.7222C21.5475 20.6096 22.7901 20.6049 24.0563 20.7081C25.3224 20.8113 26.5651 21.0223 27.7843 21.3411C29.0223 21.66 30.1196 22.1008 31.0762 22.6635C31.3388 22.8136 31.6248 22.8558 31.9343 22.7901C32.2439 22.7245 32.4736 22.5885 32.6237 22.3822C32.7737 22.1196 32.8113 21.8288 32.7362 21.51C32.6612 21.1911 32.483 20.9566 32.2016 20.8066C31.095 20.1501 29.857 19.6436 28.4877 19.2872C27.1184 18.9121 25.721 18.6635 24.2954 18.5416C22.8699 18.4197 21.4818 18.4244 20.1313 18.5557Z" fill="white"/>
</svg>
