<svg width="48" height="48" viewBox="0 0 48 48" fill="none" xmlns="http://www.w3.org/2000/svg">
<path fill-rule="evenodd" clip-rule="evenodd" d="M33.5399 18.9853C33.5399 19.1026 33.5399 19.2151 33.5399 19.3226C33.5399 19.4301 33.5399 19.5425 33.5399 19.6598C33.5399 21.3216 33.2348 23.0029 32.6246 24.7038C32.0143 26.4047 31.118 27.9443 29.9356 29.3226C28.7533 30.7009 27.2944 31.8201 25.559 32.6804C23.8236 33.5601 21.8212 34 19.5518 34C18.1597 34 16.8248 33.7996 15.5471 33.3988C14.2694 32.998 13.087 32.436 12 31.7126C12.2098 31.7517 12.41 31.7713 12.6007 31.7713C12.7914 31.7713 12.9917 31.7713 13.2014 31.7713C14.3457 31.7713 15.4374 31.5855 16.4768 31.2141C17.5161 30.8426 18.4553 30.3148 19.2944 29.6305C18.2265 29.611 17.2729 29.2737 16.4338 28.6188C15.5948 27.9638 15.0131 27.1378 14.6889 26.1408C14.8415 26.1603 14.9988 26.1799 15.1609 26.1994C15.323 26.219 15.4803 26.2287 15.6329 26.2287C15.8617 26.2287 16.081 26.2092 16.2908 26.1701C16.5006 26.131 16.7104 26.0919 16.9201 26.0528C15.795 25.8182 14.8558 25.2415 14.1025 24.3226C13.3492 23.4037 12.9726 22.3285 12.9726 21.0968V21.0381C13.3159 21.2141 13.6734 21.3607 14.0453 21.478C14.4172 21.5953 14.8033 21.6637 15.2038 21.6833C14.5363 21.2336 14.0024 20.6373 13.6019 19.8944C13.2014 19.1515 13.0012 18.35 13.0012 17.4897C13.0012 17.0205 13.0632 16.5709 13.1871 16.1408C13.3111 15.7106 13.4779 15.3099 13.6877 14.9384C14.298 15.7009 14.975 16.3949 15.7187 17.0205C16.4625 17.6461 17.2634 18.1838 18.1216 18.6334C18.9797 19.0831 19.8951 19.4448 20.8677 19.7185C21.8212 19.9922 22.8033 20.1584 23.8141 20.217C23.7759 20.0215 23.7473 19.826 23.7282 19.6305C23.7092 19.435 23.6996 19.2395 23.6996 19.044C23.6996 17.6559 24.1764 16.4682 25.1299 15.4809C26.0834 14.4936 27.2467 14 28.6198 14C29.3254 14 29.9881 14.1466 30.6079 14.4399C31.2277 14.7331 31.7568 15.1241 32.1955 15.6129C32.7676 15.4956 33.3159 15.3343 33.8403 15.129C34.3647 14.9237 34.8558 14.6745 35.3135 14.3812C35.1418 14.9677 34.8701 15.5005 34.4982 15.9795C34.1263 16.4585 33.683 16.8543 33.1681 17.1672C33.6639 17.1085 34.1502 17.0107 34.6269 16.8739C35.1037 16.7371 35.5614 16.5709 36 16.3754C35.6567 16.8837 35.2801 17.3578 34.8701 17.7977C34.4601 18.2375 34.0167 18.6334 33.5399 18.9853Z" fill="white"/>
</svg>
