<svg width="48" height="48" viewBox="0 0 48 48" fill="none" xmlns="http://www.w3.org/2000/svg">
<g clip-path="url(#clip0)">
<path fill-rule="evenodd" clip-rule="evenodd" d="M24.008 15.0002C24.0695 15.0016 24.4695 15.0111 25.2081 15.0284C26.0138 15.0284 26.9412 15.0474 27.9905 15.0853C29.0397 15.1232 30.089 15.1706 31.1382 15.2274C32.1687 15.3033 32.9182 15.4075 33.3866 15.5402C33.9113 15.6728 34.3609 15.9335 34.7357 16.322C35.1104 16.7106 35.3633 17.1607 35.4945 17.6724C35.7568 18.6201 35.9067 19.8331 35.9442 21.3115C35.9816 22.7899 36.0004 23.5291 36.0004 23.5291C36.0004 23.5291 35.977 24.2683 35.9301 25.7466C35.8833 27.225 35.7381 28.438 35.4945 29.3857C35.3446 29.8975 35.0823 30.3476 34.7076 30.7362C34.3328 31.1247 33.8831 31.3853 33.3585 31.518C32.8901 31.6507 32.1406 31.7454 31.1101 31.8023C30.0796 31.8781 29.035 31.9302 27.9764 31.9587C26.9178 31.9871 25.9857 32.0013 25.18 32.0013H22.7911C21.9854 32.0013 21.0532 31.9824 19.9946 31.9444C18.936 31.9065 17.8914 31.8497 16.8609 31.7739C15.8304 31.6981 15.0716 31.6033 14.5844 31.4896C14.0785 31.3379 13.6336 31.0726 13.2494 30.6935C12.8653 30.3144 12.6077 29.8596 12.4766 29.3289C12.233 28.4001 12.0925 27.1966 12.055 25.7182C12.0175 24.2398 11.9988 23.5007 11.9988 23.5007C12.001 23.4117 12.0197 22.6798 12.055 21.2973C12.0925 19.8284 12.2424 18.6107 12.5047 17.644C12.6358 17.1323 12.8935 16.6821 13.2776 16.2936C13.6617 15.905 14.1066 15.6444 14.6125 15.5117C15.081 15.3791 15.8304 15.2748 16.8609 15.199C17.9102 15.1422 18.9594 15.0995 20.0087 15.0711C21.0579 15.0426 21.9854 15.0284 22.7911 15.0284C23.5967 15.0095 23.9996 15 23.9996 15L24.008 15.0002ZM21.6107 19.8616L21.5826 27.1397L27.85 23.5007L21.6107 19.8616Z" fill="white"/>
</g>
<defs>
<clipPath id="clip0">
<rect width="24" height="24" fill="white" transform="translate(12 12)"/>
</clipPath>
</defs>
</svg>
