<svg width="62" height="26" viewBox="0 0 62 26" fill="none" xmlns="http://www.w3.org/2000/svg">
<path fill-rule="evenodd" clip-rule="evenodd" d="M59.2377 15.547C55.0317 13.8618 53.6858 11.932 52.8727 10.0021C51.4706 6.55031 48.9475 3.36997 42.8909 3.36997C39.3302 3.36997 37.227 4.0225 35.3764 4.56635C33.9466 5.00107 32.6003 5.4085 30.8621 5.4085C28.7312 5.4085 27.413 4.67503 25.8993 3.77786C24.3285 2.85385 22.5345 1.87529 19.3657 1.19593C16.5061 0.570234 13.0855 1.11408 9.88901 1.11408C8.09417 1.11408 6.41224 0.950838 3.88822 0L0.271769 8.72481C3.07514 10.0294 3.97256 11.6601 4.86953 13.3184C5.14978 13.835 5.45859 14.3511 5.79507 14.9222C4.16936 16.6947 2.00012 19.3137 0 22.2928C0.978637 23.597 2.03671 24.8363 3.1702 26C4.85035 24.2558 8.41592 21.4766 11.8798 19.5432C13.3096 20.4399 15.6926 21.0924 18.3286 21.0924C21.609 21.0924 24.2727 20.1948 26.8244 19.3249C28.9557 18.5914 31.0022 17.9121 33.2174 17.9121C35.8254 17.9121 37.7875 18.5914 39.5543 19.2162C41.1804 19.7874 42.695 20.3035 44.3207 20.3035C47.6578 20.3035 48.5824 19.3526 51.3867 19.3526C54.0785 19.3526 56.4062 20.9019 58.5366 22.2611C58.7709 22.406 58.9936 22.5464 59.2145 22.6841C60.2288 21.3692 61.1606 19.9868 62 18.5409C60.41 17.4152 59.5947 16.2206 59.2377 15.547Z" fill="white"/>
</svg>
