<svg width="62" height="40" viewBox="0 0 62 40" fill="none" xmlns="http://www.w3.org/2000/svg">
<path fill-rule="evenodd" clip-rule="evenodd" d="M59.2377 22.547C55.0317 20.8618 53.6858 18.932 52.8727 17.0021C51.4706 13.5503 48.9475 10.37 42.8909 10.37C39.3302 10.37 37.227 11.0225 35.3764 11.5663C33.9466 12.0011 32.6003 12.4085 30.8621 12.4085C28.7312 12.4085 27.413 11.675 25.8993 10.7779C24.3285 9.85385 22.5345 8.87529 19.3657 8.19593C16.5061 7.57023 13.0855 8.11408 9.88901 8.11408C8.09417 8.11408 6.41224 7.95084 3.88822 7L0.271769 15.7248C3.07514 17.0294 3.97256 18.6601 4.86953 20.3184C5.14978 20.835 5.45859 21.3511 5.79507 21.9222C4.16936 23.6947 2.00012 26.3137 0 29.2928C0.978637 30.597 2.03671 31.8363 3.1702 33C4.85035 31.2558 8.41592 28.4766 11.8798 26.5432C13.3096 27.4399 15.6926 28.0924 18.3286 28.0924C21.609 28.0924 24.2727 27.1948 26.8244 26.3249C28.9557 25.5914 31.0022 24.9121 33.2174 24.9121C35.8254 24.9121 37.7875 25.5914 39.5543 26.2162C41.1804 26.7874 42.695 27.3035 44.3207 27.3035C47.6578 27.3035 48.5824 26.3526 51.3867 26.3526C54.0785 26.3526 56.4062 27.9019 58.5366 29.2611C58.7709 29.406 58.9936 29.5464 59.2145 29.6841C60.2288 28.3692 61.1606 26.9868 62 25.5409C60.41 24.4152 59.5947 23.2206 59.2377 22.547Z" fill="#1A1A1A"/>
</svg>
